<?xml version="1.0" encoding="UTF-8"?>
<svg width="24px" height="24px" viewBox="0 0 24 24" version="1.1" xmlns="http://www.w3.org/2000/svg" xmlns:xlink="http://www.w3.org/1999/xlink">
            <path d="M18.1915604,13.5447919 C18.1348192,13.5834608 17.9933659,13.6650615 17.8156835,13.7652354 C17.6609106,13.8529256 17.3748073,14.0146045 17.154236,14.1516205 C17.1723505,14.2079493 17.1875348,14.2651915 17.1997887,14.3227382 C17.3063449,14.8223899 17.1909978,15.3360476 16.8747924,15.7693226 C16.499981,16.2823713 15.9283071,16.57589 15.3041542,16.57589 C15.299892,16.57589 15.2958961,16.57589 15.2916338,16.57589 L10.7973604,16.5481824 C10.7973604,16.5487913 10.7808442,16.5813707 10.7808442,16.5822841 L9.76083509,16.5685825 C9.75976953,16.2525323 9.86792406,15.953533 10.0647866,15.7288267 C10.2605836,15.5053384 10.5205807,15.3823285 10.797094,15.3823285 C10.7989587,15.3823285 10.8005571,15.3823285 10.8024218,15.3823285 L15.2969617,15.4100362 C15.2990928,15.4100362 15.3014903,15.4100362 15.303355,15.4100362 C15.6195605,15.4100362 15.9136556,15.2654082 16.091338,15.0224332 C16.2351889,14.8248257 16.2271971,14.6859828 16.2085498,14.5985971 C16.1973614,14.545922 16.1768494,14.493247 16.1491447,14.4417899 C16.1102517,14.402512 16.0777521,14.3559265 16.0511131,14.302338 C15.9751918,14.2155613 15.878492,14.1403547 15.7714031,14.0888976 C15.4429436,13.931177 15.0305712,13.9342218 14.6315183,13.93818 C14.4168076,13.9400069 14.1962363,13.9448786 13.9719355,13.9497502 C12.8341818,13.9747176 11.5437864,14.0030342 10.3692709,13.6528823 C10.1175319,13.5779802 9.87564938,13.4979019 9.6404266,13.4199551 C8.568205,13.0646269 7.72028416,12.7848098 6.62675131,13.215649 C5.56784923,13.6330911 4.54171317,14.4667572 3.39676697,15.838744 C3.38824248,15.8490963 3.37945159,15.8588397 3.37039432,15.8682786 L1.04640393,18.2773242 L4.18927859,22.4563119 L7.34733751,19.6910247 C7.467746,19.5856746 7.62305164,19.5467012 7.77089835,19.5856746 C7.97095758,19.6380452 8.19579113,19.6423079 8.44779651,19.6423079 L15.1973316,19.6435258 C15.4738449,19.6435258 15.7596819,19.6435258 15.9826507,19.550355 C16.2442461,19.4413511 16.493854,19.1706684 16.7144253,18.9322606 C19.4518537,15.9678435 22.4109189,11.9231315 22.8970815,10.5505357 C22.5574337,10.5910316 22.1669053,10.8251767 21.784635,11.0864205 L18.1915604,13.5447919 Z" id="Path" opacity="0"></path>
            <path d="M12.345089,9.4364435 L16.2522379,4.97063565 C16.6086683,4.56324144 16.8047317,4.02065812 16.8047317,3.44245064 C16.8047317,2.86424316 16.6084019,2.32135536 16.2522379,1.91426563 C15.8958074,1.50687142 15.4210996,1.28246967 14.9152241,1.28246967 C14.4093486,1.28246967 13.9343744,1.50687142 13.5782104,1.91396115 L13.0664743,2.49886719 C12.8672143,2.72631373 12.606418,2.84018924 12.3453553,2.84018924 C12.0842927,2.84018924 11.82323,2.72631373 11.6242364,2.49886719 L11.1125003,1.91426563 C10.7552707,1.50595798 10.2802965,1.28094727 9.77522018,1.28094727 C9.27014386,1.28094727 8.79516967,1.5056535 8.43820645,1.91396115 C8.08177601,2.32135536 7.88571263,2.86393868 7.88571263,3.44245064 C7.88571263,4.02065812 8.0820424,4.56354592 8.43820645,4.97063565 L12.345089,9.4364435 Z" id="Path"></path>
            <path d="M23.6349831,9.51378142 C22.7103418,9.09664385 21.7673196,9.74031452 21.2611777,10.0865083 L17.6675704,12.5442706 C17.6206857,12.576241 17.5058714,12.6398774 17.3636189,12.7202601 C17.0114507,12.91939 16.7266793,13.0804599 16.5085055,13.2275237 C16.4027485,13.1440962 16.2882006,13.0722389 16.1667265,13.0137788 C15.645134,12.7634962 15.079587,12.7695858 14.6240594,12.7723262 C14.4056192,12.7744575 14.1813184,12.7790247 13.9530218,12.7842009 C12.8275221,12.8088638 11.6652605,12.8344401 10.6271369,12.5250884 C10.3844552,12.4526222 10.1513635,12.3755887 9.92466522,12.3003822 C8.7775879,11.9206957 7.6939115,11.5623227 6.29429602,12.1140404 C5.07982191,12.592683 3.92821594,13.5161707 2.67191853,15.0193884 L0.342067551,17.4345236 C-0.0599156546,17.8507477 -0.0977431001,18.5449621 0.256023432,19.0150792 L3.43272968,23.2391299 C3.62852667,23.4994603 3.90637192,23.6343449 4.18661469,23.6343449 C4.39786232,23.6343449 4.61017552,23.557616 4.7894563,23.4005043 L7.79087763,20.7725376 C8.01011698,20.805117 8.22775799,20.8084662 8.44859568,20.8084662 L15.1981308,20.8096842 C15.5463031,20.8096842 15.9408274,20.8096842 16.3332206,20.6458739 C16.7932769,20.4540515 17.1390517,20.0795412 17.4168969,19.7787149 C18.7954676,18.2855451 20.4974362,16.1943766 21.7524017,14.4515332 C24.0159215,11.3083864 24.128871,10.3669343 23.9141603,9.81765244 C23.8595503,9.67880957 23.7593874,9.56950126 23.6349831,9.51378142 Z M16.7149581,18.9328696 C16.4946532,19.1715819 16.2447789,19.4419601 15.9831835,19.5509639 C15.7599483,19.6441348 15.4741113,19.6441348 15.1978644,19.6441348 L8.44832929,19.6429169 C8.19632391,19.6429169 7.97149036,19.6386542 7.77143113,19.5862836 C7.62358442,19.5473102 7.46801239,19.5862836 7.34787029,19.6916337 L4.18981137,22.4569208 L1.04667032,18.2782376 L3.37066071,15.869192 C3.37998437,15.8597531 3.38850887,15.8497053 3.39703336,15.8396575 C4.54171317,14.4673662 5.56811562,13.6340045 6.6270177,13.2165624 C7.72055055,12.7857233 8.56847139,13.0655404 9.64069299,13.4208685 C9.87591577,13.4988154 10.1177983,13.5785891 10.3695373,13.6537957 C11.5440528,14.0039477 12.8344482,13.9753265 13.9722019,13.9506637 C14.1965027,13.945792 14.4173404,13.9409203 14.6317847,13.9390934 C15.0308376,13.9348307 15.44321,13.9317859 15.7716695,14.089811 C15.8787584,14.1409637 15.9754582,14.2164747 16.0513794,14.3032515 C16.0780185,14.35684 16.1105181,14.4034254 16.1494111,14.4427033 C16.1773821,14.4941604 16.1976278,14.5468355 16.2088162,14.5995105 C16.2274635,14.6868963 16.2354553,14.8257391 16.0916044,15.0233466 C15.913922,15.2663217 15.6198269,15.4109496 15.3036214,15.4109496 C15.3017567,15.4109496 15.2993592,15.4109496 15.297228,15.4109496 L10.8029546,15.3823285 C10.8010898,15.3823285 10.7994915,15.3823285 10.7976268,15.3823285 C10.5208471,15.3823285 10.26085,15.505034 10.0653194,15.7288267 C9.86845684,15.953533 9.76030231,16.2525323 9.76136787,16.5685825 L10.7813769,16.5822841 C10.7813769,16.5816752 10.7978932,16.5490958 10.7978932,16.5481824 L15.2921666,16.57589 C15.2964289,16.57589 15.3004247,16.57589 15.304687,16.57589 C15.9288398,16.57589 16.5005138,16.2823713 16.8753251,15.7693226 C17.1915306,15.3360476 17.3068777,14.8220854 17.2003215,14.3227382 C17.1880675,14.264887 17.1728833,14.2079493 17.1547687,14.1516205 C17.37534,14.0146045 17.661177,13.8529256 17.8162162,13.7652354 C17.9938987,13.6650615 18.135352,13.5834608 18.1920932,13.5447919 L21.7857005,11.0870295 C22.1679708,10.8257856 22.5584992,10.5916405 22.8981471,10.5511447 C22.4114517,11.9240449 19.4521201,15.9684525 16.7149581,18.9328696 Z" id="Shape" ></path>
            <path d="M7.71655469,5.79486296 L12.3006017,11.0343544 L12.345089,10.9835063 L12.3895762,11.0343544 L16.9736232,5.79486296 C18.108713,4.49777825 18.108713,2.38681855 16.9736232,1.08942936 C16.4062115,0.440582529 15.660851,0.116311352 14.9152241,0.116311352 C14.1698636,0.116311352 13.4242367,0.440582529 12.856825,1.08912488 L12.345089,1.67403092 L11.8333529,1.08942936 C11.283523,0.460982688 10.5525475,0.114788952 9.77495379,0.114788952 C8.99736003,0.114788952 8.2663846,0.460982688 7.71655469,1.08942936 C6.58146494,2.38681855 6.58146494,4.49747377 7.71655469,5.79486296 Z M8.43794006,1.91365667 C8.79490328,1.50534902 9.26987747,1.28064279 9.77495379,1.28064279 C10.2800301,1.28064279 10.7550043,1.50534902 11.1122339,1.91396115 L11.62397,2.49856271 C11.82323,2.72600925 12.0840263,2.83988476 12.345089,2.83988476 C12.6061516,2.83988476 12.8672143,2.72600925 13.0662079,2.49856271 L13.577944,1.91365667 C13.9341081,1.50656694 14.4090822,1.28216519 14.9149577,1.28216519 C15.4208332,1.28216519 15.8958074,1.50656694 16.2519715,1.91396115 C16.6084019,2.32105088 16.8044653,2.86393868 16.8044653,3.44214616 C16.8044653,4.02035364 16.6081355,4.56324144 16.2519715,4.97033117 L12.345089,9.4364435 L8.43794006,4.97033117 C8.08177601,4.56324144 7.88544624,4.02035364 7.88544624,3.44214616 C7.88544624,2.86393868 8.08150962,2.32105088 8.43794006,1.91365667 Z" id="Shape" ></path>
</svg>