<svg width="25" height="24" viewBox="0 0 25 24" fill="none" xmlns="http://www.w3.org/2000/svg">
<path d="M20.66 4.61006C19.5983 3.54806 18.1907 2.90238 16.6932 2.79044C15.1957 2.67849 13.7078 3.10772 12.5 4.00006C11.2277 3.0537 9.64399 2.62457 8.06792 2.7991C6.49185 2.97362 5.04044 3.73884 4.00597 4.94064C2.97151 6.14245 2.43082 7.69158 2.4928 9.27607C2.55478 10.8606 3.21482 12.3627 4.34 13.4801L11.79 20.9301C11.883 21.0238 11.9936 21.0982 12.1154 21.1489C12.2373 21.1997 12.368 21.2259 12.5 21.2259C12.632 21.2259 12.7627 21.1997 12.8846 21.1489C13.0064 21.0982 13.117 21.0238 13.21 20.9301L20.66 13.4801C21.2427 12.8978 21.7049 12.2064 22.0202 11.4454C22.3356 10.6844 22.4979 9.86879 22.4979 9.04506C22.4979 8.22133 22.3356 7.40567 22.0202 6.64469C21.7049 5.88371 21.2427 5.19233 20.66 4.61006ZM19.25 12.0701L12.5 18.8101L5.75 12.0701C5.15518 11.4728 4.74998 10.7131 4.58523 9.8864C4.42049 9.05969 4.50353 8.20274 4.82395 7.42305C5.14437 6.64336 5.6879 5.97565 6.38635 5.50368C7.08479 5.03171 7.90706 4.7765 8.75 4.77006C9.87611 4.77282 10.9551 5.22239 11.75 6.02006C11.843 6.11379 11.9536 6.18818 12.0754 6.23895C12.1973 6.28972 12.328 6.31586 12.46 6.31586C12.592 6.31586 12.7227 6.28972 12.8446 6.23895C12.9664 6.18818 13.077 6.11379 13.17 6.02006C13.9883 5.31094 15.0455 4.9392 16.1275 4.98008C17.2096 5.02096 18.2357 5.47141 18.9982 6.24025C19.7607 7.00909 20.2026 8.0389 20.2345 9.12125C20.2664 10.2036 19.8859 11.2576 19.17 12.0701H19.25Z" fill="white"/>
</svg>
