<svg width="25" height="24" viewBox="0 0 25 24" fill="none" xmlns="http://www.w3.org/2000/svg">
<path d="M17.5 11H5.90999L8.20999 8.71C8.30323 8.61676 8.37719 8.50607 8.42765 8.38425C8.47811 8.26243 8.50408 8.13186 8.50408 8C8.50408 7.86814 8.47811 7.73757 8.42765 7.61575C8.37719 7.49393 8.30323 7.38324 8.20999 7.29C8.11675 7.19676 8.00606 7.1228 7.88424 7.07234C7.76242 7.02188 7.63185 6.99591 7.49999 6.99591C7.36813 6.99591 7.23756 7.02188 7.11574 7.07234C6.99392 7.1228 6.88323 7.19676 6.78999 7.29L2.78999 11.29C2.69895 11.3851 2.62758 11.4972 2.57999 11.62C2.47997 11.8635 2.47997 12.1365 2.57999 12.38C2.62758 12.5028 2.69895 12.6149 2.78999 12.71L6.78999 16.71C6.88295 16.8037 6.99355 16.8781 7.11541 16.9289C7.23727 16.9797 7.36798 17.0058 7.49999 17.0058C7.632 17.0058 7.76271 16.9797 7.88456 16.9289C8.00642 16.8781 8.11702 16.8037 8.20999 16.71C8.30372 16.617 8.37811 16.5064 8.42888 16.3846C8.47965 16.2627 8.50579 16.132 8.50579 16C8.50579 15.868 8.47965 15.7373 8.42888 15.6154C8.37811 15.4936 8.30372 15.383 8.20999 15.29L5.90999 13H17.5C17.7652 13 18.0196 12.8946 18.2071 12.7071C18.3946 12.5196 18.5 12.2652 18.5 12C18.5 11.7348 18.3946 11.4804 18.2071 11.2929C18.0196 11.1054 17.7652 11 17.5 11ZM21.5 4C21.2348 4 20.9804 4.10536 20.7929 4.29289C20.6053 4.48043 20.5 4.73478 20.5 5V19C20.5 19.2652 20.6053 19.5196 20.7929 19.7071C20.9804 19.8946 21.2348 20 21.5 20C21.7652 20 22.0196 19.8946 22.2071 19.7071C22.3946 19.5196 22.5 19.2652 22.5 19V5C22.5 4.73478 22.3946 4.48043 22.2071 4.29289C22.0196 4.10536 21.7652 4 21.5 4Z" fill="white"/>
</svg>
