<svg width="24px" height="24px" fill="none"  viewBox="0 0 24 24"  xmlns="http://www.w3.org/2000/svg">
<circle id="Oval" cx="7.85665574" cy="2.36380328" r="2.36380328"></circle>
<path d="M21.2419672,14.8650492 C18.7636721,16.3144918 17.2772459,14.1879344 16.1575082,12.1408525 C16.1087213,11.9437377 16.0367213,11.7438689 15.9332459,11.5420328 C15.0664918,9.85613115 14.1619672,8.18714754 13.2153443,6.54413115 C15.0641311,5.95436066 16.7547541,6.49298361 18.0841967,8.3547541 C19.165377,9.8695082 21.6944262,8.41691803 20.6006557,6.88445902 C18.027541,3.28091803 14.1906885,2.38662295 10.3495082,4.66701639 C10.1897705,4.76183607 10.0615082,4.872 9.95881967,4.99278689 C9.90059016,5.01560656 9.8427541,5.04078689 9.78570492,5.06754098 C9.6295082,5.09901639 9.46859016,5.15921311 9.30609836,5.25560656 C6.91829508,6.67318033 4.69927869,6.40445902 3.04209836,4.08314754 C1.96013115,2.56839344 -0.568131148,4.02098361 0.526032787,5.55344262 C2.64039344,8.51488525 5.60891803,9.64209836 8.73206557,8.6852459 C9.71213115,10.3683934 10.642623,12.0814426 11.5365246,13.8125902 C10.2153443,14.4881311 8.99213115,15.3285246 7.85508197,16.3180328 C7.80590164,16.360918 7.76222951,16.405377 7.72091803,16.4498361 C7.47344262,16.576918 7.25508197,16.7913443 7.1012459,17.1092459 C6.33718033,18.688918 5.57232787,20.2678033 4.8082623,21.8474754 C3.98754098,23.544 6.62832787,24.7739016 7.44590164,23.0852459 C8.17219672,21.5846557 8.89927869,20.0820984 9.62596721,18.5822951 C9.72432787,18.5268197 9.82190164,18.4607213 9.91554098,18.3784918 C11.2343607,17.2304262 12.7447869,16.2999344 14.3992131,15.723541 C14.4806557,15.6952131 14.5550164,15.661377 14.6250492,15.6236066 C16.6504918,18.1939672 19.4761967,19.6095738 22.8598033,17.6321311 C24.6424918,16.5902951 23.0301639,13.8200656 21.2419672,14.8650492 Z" id="Path"></path>
</svg>