<svg width="26px" height="24px" viewBox="0 0 26 24" version="1.1" xmlns="http://www.w3.org/2000/svg" xmlns:xlink="http://www.w3.org/1999/xlink">
    <path d="M0.448275862,14.2222222 L2.24137931,14.2222222 L2.24137931,17.3333333 C2.24137931,17.5155436 2.35344828,17.679986 2.52828241,17.7466634 C2.58207336,17.7688803 2.63586427,17.7777778 2.68965517,17.7777778 C2.81518555,17.7777778 2.93620143,17.7288954 3.02137492,17.6311036 L5.37931034,15.05778 L5.37931034,9.33333333 C5.37931034,8.59998916 5.98447182,8 6.72413793,8 L15.2413793,8 L15.2413793,3.11111111 C15.2413793,2.86667209 15.0396497,2.66666667 14.7931034,2.66666667 L0.448275862,2.66666667 C0.201729607,2.66666667 0,2.86667209 0,3.11111111 L0,13.7777778 C0,14.0222168 0.201729607,14.2222222 0.448275862,14.2222222 Z M2.24137931,5.33333333 L13,5.33333333 C13.2465463,5.33333333 13.4482759,5.53333876 13.4482759,5.77777778 C13.4482759,6.0222168 13.2465463,6.22222222 13,6.22222222 L2.24137931,6.22222222 C1.99483306,6.22222222 1.79310345,6.0222168 1.79310345,5.77777778 C1.79310345,5.53333876 1.99483306,5.33333333 2.24137931,5.33333333 Z" id="Shape"></path>
    <ellipse id="Oval" fill="#FF0000" cx="20.1724138" cy="5.77777778" rx="5.82758621" ry="5.77777778"></ellipse>
    <path d="M21.0689655,8.88888889 L6.72413793,8.88888889 C6.47759168,8.88888889 6.27586207,9.08889431 6.27586207,9.33333333 L6.27586207,20 C6.27586207,20.244439 6.47759168,20.4444444 6.72413793,20.4444444 L15.3713694,20.4444444 L18.4958665,23.8533258 C18.58104,23.9511176 18.7020558,24 18.8275862,24 C18.8813771,24 18.935168,23.9911025 18.988959,23.9688856 C19.1637931,23.9022082 19.2758621,23.7377659 19.2758621,23.5555556 L19.2758621,20.4444444 L21.0689655,20.4444444 C21.3155118,20.4444444 21.5172414,20.244439 21.5172414,20 L21.5172414,9.33333333 C21.5172414,9.08889431 21.3155118,8.88888889 21.0689655,8.88888889 Z M18.8275862,17.7777778 L8.96551724,17.7777778 C8.71795864,17.7777778 8.51724138,17.5789931 8.51724138,17.3333333 C8.51724138,17.0876736 8.71795864,16.8888889 8.96551724,16.8888889 L18.8275862,16.8888889 C19.0751448,16.8888889 19.2758621,17.0876736 19.2758621,17.3333333 C19.2758621,17.5789931 19.0751448,17.7777778 18.8275862,17.7777778 Z M18.8275862,15.1111111 L8.96551724,15.1111111 C8.71795864,15.1111111 8.51724138,14.9123264 8.51724138,14.6666667 C8.51724138,14.4210069 8.71795864,14.2222222 8.96551724,14.2222222 L18.8275862,14.2222222 C19.0751448,14.2222222 19.2758621,14.4210069 19.2758621,14.6666667 C19.2758621,14.9123264 19.0751448,15.1111111 18.8275862,15.1111111 Z M18.8275862,12.4444444 L8.96551724,12.4444444 C8.71795864,12.4444444 8.51724138,12.2456597 8.51724138,12 C8.51724138,11.7543403 8.71795864,11.5555556 8.96551724,11.5555556 L18.8275862,11.5555556 C19.0751448,11.5555556 19.2758621,11.7543403 19.2758621,12 C19.2758621,12.2456597 19.0751448,12.4444444 18.8275862,12.4444444 Z" id="Shape"></path>
</svg>