<svg width="24px" height="24px" viewBox="0 0 24 24" version="1.1" xmlns="http://www.w3.org/2000/svg" xmlns:xlink="http://www.w3.org/1999/xlink">
    <path d="M0.5,13 L2.5,13 L2.5,16.5 C2.5,16.7049866 2.625,16.8899842 2.8200073,16.9649963 C2.8800049,16.9899903 2.94000245,17 3,17 C3.14001465,17 3.2749939,16.9450073 3.3699951,16.8349915 L6,13.9400025 L6,7.5 C6,6.6749878 6.6749878,6 7.5,6 L17,6 L17,0.5 C17,0.2250061 16.7749939,0 16.5,0 L0.5,0 C0.2250061,0 0,0.2250061 0,0.5 L0,12.5 C0,12.7749939 0.2250061,13 0.5,13 Z M2.5,3 L14.5,3 C14.7749939,3 15,3.2250061 15,3.5 C15,3.7749939 14.7749939,4 14.5,4 L2.5,4 C2.2250061,4 2,3.7749939 2,3.5 C2,3.2250061 2.2250061,3 2.5,3 Z" id="Shape"></path>
    <circle id="Oval" fill="#FF0000" cx="19.5" cy="4.5" r="4.5"></circle>
    <path d="M23.5,7 L7.5,7 C7.2250061,7 7,7.2250061 7,7.5 L7,19.5 C7,19.7749939 7.2250061,20 7.5,20 L17.144989,20 L20.6300049,23.8349915 C20.7250061,23.9450073 20.8599853,24 21,24 C21.0599975,24 21.1199951,23.9899903 21.1799927,23.9649963 C21.375,23.8899842 21.5,23.7049866 21.5,23.5 L21.5,20 L23.5,20 C23.7749939,20 24,19.7749939 24,19.5 L24,7.5 C24,7.2250061 23.7749939,7 23.5,7 Z M21,17 L10,17 C9.72387695,17 9.5,16.7763672 9.5,16.5 C9.5,16.2236328 9.72387695,16 10,16 L21,16 C21.276123,16 21.5,16.2236328 21.5,16.5 C21.5,16.7763672 21.276123,17 21,17 Z M21,14 L10,14 C9.72387695,14 9.5,13.7763672 9.5,13.5 C9.5,13.2236328 9.72387695,13 10,13 L21,13 C21.276123,13 21.5,13.2236328 21.5,13.5 C21.5,13.7763672 21.276123,14 21,14 Z M21,11 L10,11 C9.72387695,11 9.5,10.7763672 9.5,10.5 C9.5,10.2236328 9.72387695,10 10,10 L21,10 C21.276123,10 21.5,10.2236328 21.5,10.5 C21.5,10.7763672 21.276123,11 21,11 Z" id="Shape" ></path>
</svg>