<svg width="25" height="24" viewBox="0 0 25 24" fill="none" xmlns="http://www.w3.org/2000/svg">
<path d="M13.91 11.9999L20.21 5.70994C20.3983 5.52164 20.5041 5.26624 20.5041 4.99994C20.5041 4.73364 20.3983 4.47825 20.21 4.28994C20.0217 4.10164 19.7663 3.99585 19.5 3.99585C19.2337 3.99585 18.9783 4.10164 18.79 4.28994L12.5 10.5899L6.21 4.28994C6.0217 4.10164 5.7663 3.99585 5.5 3.99585C5.2337 3.99585 4.9783 4.10164 4.79 4.28994C4.6017 4.47825 4.49591 4.73364 4.49591 4.99994C4.49591 5.26624 4.6017 5.52164 4.79 5.70994L11.09 11.9999L4.79 18.2899C4.69627 18.3829 4.62188 18.4935 4.57111 18.6154C4.52034 18.7372 4.4942 18.8679 4.4942 18.9999C4.4942 19.132 4.52034 19.2627 4.57111 19.3845C4.62188 19.5064 4.69627 19.617 4.79 19.7099C4.88296 19.8037 4.99356 19.8781 5.11542 19.9288C5.23728 19.9796 5.36799 20.0057 5.5 20.0057C5.63201 20.0057 5.76272 19.9796 5.88458 19.9288C6.00644 19.8781 6.11704 19.8037 6.21 19.7099L12.5 13.4099L18.79 19.7099C18.883 19.8037 18.9936 19.8781 19.1154 19.9288C19.2373 19.9796 19.368 20.0057 19.5 20.0057C19.632 20.0057 19.7627 19.9796 19.8846 19.9288C20.0064 19.8781 20.117 19.8037 20.21 19.7099C20.3037 19.617 20.3781 19.5064 20.4289 19.3845C20.4797 19.2627 20.5058 19.132 20.5058 18.9999C20.5058 18.8679 20.4797 18.7372 20.4289 18.6154C20.3781 18.4935 20.3037 18.3829 20.21 18.2899L13.91 11.9999Z" fill="white"/>
</svg>
